<?xml version="1.0" encoding="utf-8"?>
<!-- Generator: Adobe Illustrator 25.2.3, SVG Export Plug-In . SVG Version: 6.00 Build 0)  -->
<svg version="1.1" id="Layer_1" xmlns="http://www.w3.org/2000/svg" xmlns:xlink="http://www.w3.org/1999/xlink" x="0px" y="0px"
	 viewBox="0 0 947.5 1240.9" style="enable-background:new 0 0 947.5 1240.9;" xml:space="preserve">
<style type="text/css">
	.st0{fill:#FFFFFF;stroke:#3F4D79;stroke-width:5;stroke-linecap:round;stroke-miterlimit:10;}
	.st1{fill:#FFB000;}
	.st2{fill:#E2631E;}
	.st3{fill:none;stroke:#3F4D79;stroke-width:7;stroke-linecap:round;stroke-miterlimit:10;}
	.st4{fill:#FFC0B7;}
	.st5{fill:#3C4564;}
	.st6{fill:#FE7523;}
	.st7{fill:#FFCFC9;}
	.st8{fill:#3F4D79;}
	.st9{fill:#FAB6AD;}
	.st10{fill:#CEEFF7;}
	.st11{fill:none;stroke:#84D7EC;stroke-width:5;stroke-miterlimit:10;}
	.st12{fill:none;stroke:#FE7523;stroke-width:3;stroke-miterlimit:10;}
	.st13{fill:none;stroke:#3F4D79;stroke-width:5;stroke-linecap:round;stroke-miterlimit:10;}
	.st14{fill:#FFFFFF;stroke:#ECBE02;stroke-width:6;stroke-miterlimit:10;}
	.st15{fill:#FFFFFF;}
	.st16{fill:none;stroke:#3CBFD4;stroke-width:5;stroke-linecap:round;stroke-miterlimit:10;}
	.st17{fill:none;stroke:#3CBFD4;stroke-width:7;stroke-linecap:round;stroke-miterlimit:10;}
	.st18{fill:#FFFFFF;stroke:#FFB000;stroke-width:5;stroke-miterlimit:10;}
	.st19{fill:#84D7EC;}
</style>
<g id="Layer_2_1_">
	<g id="Слой_1">
		<g id="_2">
			<g id="CHAIR">
				<path class="st0" d="M440.7,1234.3L440.7,1234.3c-3.3,0-6-2.6-6.1-5.9l27.2-380.5h37.8l-52.8,380.5
					C446.7,1231.7,444,1234.3,440.7,1234.3z"/>
				<path class="st0" d="M675.7,1234.3L675.7,1234.3c-3.3,0-6-2.6-6.1-5.9l-52.8-380.5h37.8l27.2,380.5
					C681.7,1231.7,679,1234.3,675.7,1234.3z"/>
				<path class="st0" d="M784.7,1234.3L784.7,1234.3c-3.3,0-6-2.6-6.1-5.9l-52.8-380.5h37.8l27.2,380.5
					C790.7,1231.7,788,1234.3,784.7,1234.3z"/>
				<polygon class="st0" points="798.7,766.3 787.8,810.1 751.9,810.1 762.8,766.3 				"/>
				<polygon class="st0" points="658.5,766.3 647.6,810.1 611.7,810.1 622.7,766.3 				"/>
				<path class="st1" d="M417.4,807.1h375.2c12.4,0,22.4,10,22.4,22.4v0c0,12.4-10,22.4-22.4,22.4H417.4c-12.4,0-22.4-10-22.4-22.4
					v0C395,817.1,405,807.1,417.4,807.1z"/>
				<path class="st1" d="M947,458.5l-68,273c-5.5,22.2-25.5,37.7-48.3,37.7h-248c-13.7,0-23.3-20.8-18.5-40.3l67.8-280.3
					c3.2-13.3,11.6-22.2,20.9-22.2h269.4C933.2,426.5,950.7,443,947,458.5z"/>
			</g>
			<g id="CHARACTER">
				<g id="LEGS">
					<g id="LEFT_LEG">
						<g id="FOOT">
							<path class="st2" d="M164.3,1168.4c0,6.9,21.4,28.1,14.2,63.5c0,0-52.8,0.1-78.7,0.2c-30.8,0.2-96.3,0.2-96.3,0.2
								s-6.4-28.2,27.4-32.1s76.5-39.6,76.5-39.6L164.3,1168.4z"/>
							<path class="st3" d="M180.8,1235.2c-30.8,0.2-177.3,0.2-177.3,0.2"/>
							<path class="st4" d="M108.4,1160.7c3.3-9.3,8.2-39.7,8.2-39.7l54.3,4.8c0,0-9,20.3-7.5,41.7
								C163.9,1174.7,104.7,1170.9,108.4,1160.7z"/>
						</g>
						<path id="PANT" class="st5" d="M656.1,781.2c-60.3,24.7-343.2,9.1-343.2,9.1s-5.8,221.6-112.2,336.3c0,0-73.4-2.5-93.5-7.7
							c0,0,55.6-331.7,95.3-396.8c21-34.5,257.4-87.1,308.4-91.5c15.2,10.1,31.3,18.8,48.1,25.8C605.5,676,653,683,688.7,685.1
							C694.2,717.1,695.1,765.3,656.1,781.2z"/>
					</g>
					<g id="RIGHT_LEG">
						<g id="FOOT-2">
							<path class="st6" d="M205.3,1168.4c0,6.9,21.4,28.1,14.2,63.5c0,0-52.8,0.1-78.7,0.2c-30.8,0.2-96.3,0.2-96.3,0.2
								s-6.4-28.2,27.4-32.1s76.5-39.6,76.5-39.6L205.3,1168.4z"/>
							<path class="st3" d="M221.8,1235.2c-30.8,0.2-177.3,0.2-177.3,0.2"/>
							<path class="st7" d="M149.4,1160.7c3.3-9.3,8.1-39.7,8.1-39.7l62.3,6.8c0,0-11.3,10.4-15.5,39.7
								C203.3,1174.6,145.7,1170.9,149.4,1160.7z"/>
						</g>
						<path id="PANT-2" class="st8" d="M699.8,807.3c-60.3,24.7-343.2,9.1-343.2,9.1s5.8,193-127.8,311.7c0,0-66.9-4.8-87-10
							c0,0,85.6-313.4,104.5-369.8c10.3-30.9,273-90.5,312.9-91.8c65.8,27.8,133.9,30.1,167.4,29.2
							C732.5,706,752.3,785.9,699.8,807.3z"/>
					</g>
				</g>
				<g id="LEFT_HAND">
					<path class="st4" d="M527.2,547c-68.4,13.7-232.9,7.8-301.8-6c-3.7,2.9-7.7,5.5-11.8,7.9c-9,5.2-26.3,9.3-30.4,9.1
						s-29.3-4.1-29.3-4.1s-0.9-2.8,2.8-6.6s30.7-0.8,20.9-9c-4.4-3.7-26.3,4.6-35.8,13.8s-14,1.9-14,1.9s9.1-17,12.4-20.1
						s25-16.1,39.7-18.1c10.7-1.4,36.3,0.5,49.9,3.8c50.3-11.9,146.8-27.2,215.5-26.6c9.1-38,20.2-84.5,23.2-98.3l48.8,32L527.2,547
						z"/>
					<path class="st9" d="M468.4,394.6l-3.1,13.6c0,0,12.6,32,53.5,42.6l-1.6-24.3L468.4,394.6z"/>
				</g>
				<g id="T-SHIRT">
					<path class="st10" d="M765.8,480.1c0,0-3.7-0.2-9.8-0.9c-7,51.7-13.2,95.1-13.2,104.6c0,25.6,5,100.6,5,100.6
						S613,699.6,510.1,630.1c0,0,23.8-32.1,11.5-133.2c-8.2-67.3-4.4-70.2-4.4-70.2s-25.2-13.1-60.9-41.4c0,0,18.5-91.7,48.1-109.7
						s75.5-26.4,106-37.9s76.8-23.4,76.8-23.4c12.4,10.1,71.1,38.9,85.7,56.1C793.7,289.3,822.1,364.8,765.8,480.1z"/>
					<path class="st11" d="M647.2,449.9c0,0,12.6-20.7,27.8-96.2"/>
					<path class="st11" d="M516.1,424.7c-1.4-18.3,0.5-52.4,2.9-71.4"/>
				</g>
				<g id="RIGHT_HAND">
					<path class="st7" d="M756,479.2c0,0-53.5,135.1-77.7,137.3c-78.8,7.3-210.5-67.8-239-68.7l-12.5-0.4c-7,4.1-15.9,7.6-23.4,5.4
						c-15.2-4.4-27.3-15.4-37.4-10.7s-21.7,13.8-28,13c-13.4-1.6-21-8.7-21-8.7s8.3-9.1,16.7-17.7c-6,2.3-15,8.7-19.6,10.9
						c-7,3.3-10.6-2.6-10.6-2.6s15.6-13.8,21-17.1c5.2-3.2,19.8-6.5,27.2-6.6c8.9-1.2,57.9-7.9,83.1-5.2c28.9-1.1,87,1,189.3,20.2
						l29.3-75.2C653.4,453.3,697.9,473,756,479.2z"/>
					<path class="st9" d="M756,479.2c0,0-4.8,12.2-12.2,29.4c-24.3-7.2-63.7-22.4-92-51.2l1.6-4.1C653.4,453.2,697.9,473,756,479.2z
						"/>
				</g>
				<g id="HEAD">
					<g id="NECK">
						<path class="st7" d="M633.8,124.1c0,0,4,57,53.4,90.1c0,0-26,57-86.1,60.9s-14.8-29.8-14.8-29.8s-15.7-51.8-18.3-64.2
							L633.8,124.1z"/>
						<path class="st9" d="M633.6,153.7c-3,26.1-26,63.4-54.5,67.3c-4.5-15.2-9.6-33.2-11.1-39.8l62.5-54.2l1.9,3.9
							C632.4,130.9,634.2,148.2,633.6,153.7z"/>
					</g>
					<path id="HEAD-2" class="st7" d="M629.1,128.2c0,0,0.9,17.9-1.5,22.9c-11,23-45.7,49.4-72.6,49.4c-20.8,0-45.3-63.5-47.5-86.9
						s0.9-60.5,57.4-64.9s60.5,54.3,60.5,54.3L629.1,128.2z"/>
					<g id="HAIR">
						<path class="st6" d="M464.2,89.7c0,0-10.5-20.9,7.1-36.2c20.7-18.1,39.7-9.7,50.4-21.2s32.8-36,65.8-31.8
							c29.6,3.8,38.2,24.3,38.2,24.3s18.3-7.7,34.2,13s-22.5,107-22.5,107S627,110.4,625.4,103c-3.6-16.6-36.2-12.7-33.6-45
							c0,0-8.8,22.1-42.4,21.7c-10-0.1-22.9-2.9-35.8-4.8c-7.1,12.6-7.3,27.3-6.2,38.7C507.5,113.5,477.5,113.1,464.2,89.7z"/>
						<path class="st12" d="M624.7,24.8c0,0,14.8-14.1,30.5-0.6"/>
						<path class="st12" d="M591.8,56.1c0,0-6.2,29.7-39.7,31.7"/>
					</g>
					<g id="HEADPHONES">
						<path class="st13" d="M634.3,93.5l-10.7-80.5c-0.7-5.6-5.7-9.6-11.3-9.2"/>
						<path class="st13" d="M643.1,151.9c2.9,14.1,27.8,52.6-15.5,126.1s13,95.4-15.5,145.7s-90.2,47.6-87,131.8
							c2.1,55.4-47.6,62.9-44.7,0"/>
						<path class="st13" d="M552.4,480.1c14.9-12.1,29.9-80.8,6-119.9s-47.1-91.8-12-158.1"/>
						<path class="st14" d="M622.8,95.3l21-3.2c6.4-1,12.4,3.4,13.3,9.8l5.3,35.2c1,6.4-3.4,12.4-9.8,13.3l-21,3.2
							c-6.4,1-12.4-3.4-13.3-9.8l-5.3-35.2C612,102.2,616.4,96.3,622.8,95.3z"/>
					</g>
				</g>
			</g>
			<g id="TABLE">
				<path class="st15" d="M20.9,575.7H559c5.7,0,10.4,6.6,10.4,14.8v1.4c0,8.2-4.6,14.8-10.4,14.8H153.9"/>
				<path class="st16" d="M26.9,573.7H559c5.7,0,10.4,6.6,10.4,14.8v1.4c0,8.2-4.6,14.8-10.4,14.8H155.9"/>
				<polygon class="st15" points="533.7,1240.9 431.8,605.7 466.9,605.7 567.8,1239.9 				"/>
				<polygon class="st10" points="472.8,637.9 434.9,623.8 431.8,605.7 466.9,605.7 				"/>
				<polyline class="st17" points="531.7,1236.9 431.8,605.7 466.9,605.7 565.8,1235.9 				"/>
			</g>
			<g id="LAPTOP">
				<path class="st18" d="M405.1,547.5H102.3c-8.2,0-15.6-5.1-18.4-12.8L14.1,344.5c-3-8.1,1.1-17,9.2-20c1.7-0.6,3.6-1,5.4-1h306.8
					c9.3,0,17.6,5.8,20.7,14.5l67.2,183.2c3.7,10.2-1.5,21.4-11.7,25.1C409.7,547.1,407.4,547.5,405.1,547.5z"/>
				<path class="st18" d="M391.9,547.5H99.3c-8-0.1-15.2-5.2-17.8-12.8L14.1,344.5c-3.6-10.2,3.7-21,14.2-21h296.5
					c9.1,0.1,17.1,5.9,20,14.5l65,183.2C414.2,534,405.1,547.5,391.9,547.5z"/>
				<path class="st18" d="M98.7,547.5h435.7c5.6,0,10.1,4.5,10.1,10.1v0.5c0,5.6-4.5,10.1-10.1,10.1H98.7c-5.6,0-10.1-4.5-10.1-10.1
					v-0.5C88.6,552,93.1,547.5,98.7,547.5z"/>
			</g>
		</g>
	</g>
</g>
<rect x="-358.9" y="214.2" class="st6" width="139.5" height="139.5"/>
<rect x="-358.9" y="389" class="st10" width="139.5" height="139.5"/>
<rect x="-358.9" y="568.2" class="st19" width="139.5" height="139.5"/>
<rect x="-358.9" y="740.4" class="st1" width="139.5" height="139.5"/>
<rect x="-358.9" y="963.7" class="st8" width="139.5" height="139.5"/>
</svg>
