<svg xmlns="http://www.w3.org/2000/svg" xmlns:xlink="http://www.w3.org/1999/xlink" width="500" zoomAndPan="magnify" viewBox="0 0 375 374.999991" height="500" preserveAspectRatio="xMidYMid meet" version="1.0"><defs><clipPath id="id1"><path d="M 109.035156 32.359375 L 342.859375 32.359375 L 342.859375 266 L 109.035156 266 Z M 109.035156 32.359375 " clip-rule="nonzero"/></clipPath><clipPath id="id2"><path d="M 32.359375 109.035156 L 266 109.035156 L 266 342.859375 L 32.359375 342.859375 Z M 32.359375 109.035156 " clip-rule="nonzero"/></clipPath></defs><g clip-path="url(#id1)"><path fill="#0e7490" d="M 109.496094 32.363281 L 109.496094 93.015625 L 146.953125 93.015625 L 146.953125 69.816406 L 305.402344 69.816406 L 305.402344 228.269531 L 146.953125 228.269531 L 146.953125 163.433594 L 109.496094 163.433594 L 109.496094 265.722656 L 342.855469 265.722656 L 342.855469 32.363281 L 109.496094 32.363281 " fill-opacity="1" fill-rule="nonzero"/></g><g clip-path="url(#id2)"><path fill="rgb(0%, 0%, 0%)" d="M 228.265625 305.402344 L 69.816406 305.402344 L 69.816406 146.953125 L 228.265625 146.953125 L 228.265625 211.785156 L 265.722656 211.785156 L 265.71875 109.5 L 32.359375 109.5 L 32.359375 342.859375 L 265.722656 342.859375 L 265.722656 282.203125 L 228.265625 282.203125 L 228.265625 305.402344 " fill-opacity="1" fill-rule="nonzero"/></g></svg>